<?xml version="1.0" encoding="UTF-8" standalone="no"?>
<!DOCTYPE svg PUBLIC "-//W3C//DTD SVG 1.1//EN" "http://www.w3.org/Graphics/SVG/1.1/DTD/svg11.dtd">
<svg width="100%" height="100%" viewBox="0 0 3508 2481" version="1.1" xmlns="http://www.w3.org/2000/svg" xmlns:xlink="http://www.w3.org/1999/xlink" xml:space="preserve" xmlns:serif="http://www.serif.com/" style="fill-rule:evenodd;clip-rule:evenodd;stroke-linejoin:round;stroke-miterlimit:2;">
    <g transform="matrix(2.476562,0,0,2.476562,91,81)">
        <path d="M277.73,501.657C289.766,483.96 290.761,481.857 293.388,484.604C301.897,493.503 309.131,494.06 322.363,503.642C323.112,504.187 324.613,505.278 332.188,509.758C332.914,510.065 333.64,510.372 334.366,510.678C349.052,527.422 340.869,537.487 349.136,549.588C349.5,550.291 353.371,557.763 353.426,558.509C353.861,564.378 354.843,563.955 356.31,569.599C356.627,570.201 357.339,571.556 359.096,577.632C361.395,584.703 360.662,584.707 363.409,591.539C368.626,604.72 368.657,604.571 369.249,606.615C370.134,609.374 370.116,609.36 370.205,609.595C370.507,610.393 370.608,610.172 370.968,611.123C371.301,611.511 379.226,625.954 379.936,627.248C381.093,630.889 380.976,630.778 381.431,634.527C382.102,639.239 394.351,657.552 395.627,659.459C395.946,660.044 395.699,659.919 395.916,660.315C395.965,660.406 395.916,660.315 396.607,661.409C398.426,664.29 404.033,673.171 423.041,694.8C424.214,696.825 423.939,696.807 425.472,698.523C429.587,703.8 453.909,734.992 488.454,753.57C489.154,753.858 489.853,754.145 490.553,754.433C490.946,754.921 495.415,760.475 495.455,760.548L496.386,760.661C501.229,767.12 508.829,769.783 514.267,773.962C515.993,774.33 515.875,774.396 517.582,774.202C522.353,778.791 522.784,777.981 532.339,782.822C538.3,785.959 545.972,792.416 558.385,793.658C559.969,796.251 559.348,797.137 562.487,797.566C569.793,798.562 569.088,800.937 576.571,801.141L578.538,801.105C584.205,806.323 584.8,804.838 592.597,806.188C594.101,806.448 595.681,809.245 599.477,809.69C606.191,810.476 605.806,811.652 612.521,812.388C618.551,813.049 618.853,810.97 624.183,813.948C634.682,823.44 740.319,824.685 779.654,810.922C779.947,810.82 779.815,811.245 783.49,810.322C786.25,809.729 786.291,810.09 788.442,808.137L789.372,807.373C789.525,807.432 791.286,808.116 791.286,808.116C799.86,805.064 801.027,807.627 807.489,801.285C809.685,801.207 809.574,801.553 811.753,800.831C812.065,800.82 823.96,798.639 826.433,794.394C845.059,790.929 872.808,769.882 872.744,777.499C872.467,810.328 860.119,837.736 868.395,839.789C869.84,840.147 876.781,840.285 877.478,840.069C878.028,839.898 876.948,838.512 877.498,838.341C883.587,838.397 883.497,837.767 889.52,839.084L893.457,839.586L894.395,839.65C896.075,846.519 914.953,842.806 917.396,843.829C931.806,849.864 935.187,841.736 942.65,850.501C937.694,855.166 936.929,856.916 936.631,857.599C935.12,857.752 927.777,858.5 919.581,865.965L917.45,866.407C914.749,867.426 912.405,866.839 903.504,873.613C902.924,873.972 902.343,874.331 901.763,874.69C899.198,874.876 876.533,884.594 873.716,887.947C859.149,890.427 853.725,895.473 849.466,896.357C836.082,903.716 812.878,907.463 809.598,907.993C806.016,908.572 806.997,910.687 803.452,911.165C795.615,912.22 795.346,910.799 788.564,914.607C784.711,916.77 777.482,913.403 767.505,918.514C766.537,919.01 750.045,921.565 748.522,921.801C747.196,922.006 745.76,921.545 744.5,922.008C743.9,922.228 744.103,923.424 743.503,923.644C736.178,923.665 728.852,923.686 721.527,923.706L720.505,923.551C714.907,923.36 714.942,923.597 650.491,923.748C647.854,922.569 648.26,921.803 645.497,921.516C643.897,921.35 644.022,921.602 642.508,921.444C641.497,921.185 640.487,920.925 639.476,920.665C638.113,920.521 623.428,918.969 622.459,918.668C605.215,913.318 603.971,918.227 598.48,914.529C589.975,908.803 584.184,912.363 580.544,910.42C571.485,905.582 552.305,904.142 538.718,897.051C535.499,895.63 535.516,896.238 533.428,895.948C532.133,895.979 530.838,896.009 529.542,896.039C528.964,895.223 525.681,890.587 519.405,888.721C514.608,887.295 515.109,886.553 510.32,884.841C501.72,881.766 502.124,881.049 501.375,880.816C491.798,877.827 492.572,876.408 483.417,872.718C475.123,869.375 435.291,845.219 421.176,833.871C417.757,831.122 378.648,799.678 378.394,799.551C377.273,798.088 377.351,798.063 377.235,797.956C368.672,788.967 368.838,789.088 367.349,787.652C366.501,786.834 364.769,786.305 363.545,784.462C363.311,784.038 363.077,783.614 362.843,783.189C356.69,776.744 357.32,776.282 350.357,770.636C349.446,769.053 343.339,758.442 336.016,752.874C334.508,751.727 335.118,751.389 334.081,749.857C327.511,740.148 325.432,740.942 324.649,740.372C320.497,731.216 320.702,731.233 314.641,723.367C297.028,695.854 297.27,695.717 295.571,693.443C295.318,693.01 295.065,692.577 294.812,692.144C291.311,683.218 289.029,684.2 288.292,684.517L288.215,681.598C287.228,678.518 286.563,673.551 281.48,667.507L281.432,666.526C276.913,654.773 270.184,643.754 268.978,637.299C265.158,631.782 266.945,631.083 263.973,625.117C263.957,625.091 263.969,625.118 253,594.392C244.165,561.625 246.568,555.85 247.857,552.751C249.959,548.627 248.667,548.218 251.125,544.243C255.1,537.815 256.65,534.131 256.873,533.786C257.309,533.113 257.289,533.172 262.494,525.496C262.955,523.906 263.024,524.059 262.626,522.557C263.152,521.328 263.387,521.548 263.416,521.442C265.969,520.59 266.015,520.938 267.978,518.87L270.676,514.578L272.84,510.69C273.361,509.605 273.882,508.52 274.402,507.435C275.511,505.509 276.62,503.583 277.73,501.657Z" style="fill:rgb(15,75,99);fill-opacity:1;"/>
        <path d="M634.562,10.702C640.466,10.46 677.482,8.941 708.417,9.948C715.074,10.165 729.44,28.384 735.059,33.844C736.758,34.965 736.646,34.851 738.368,35.776C750.607,52.739 751.513,51.804 766.529,66.47C768.279,68.179 769.919,70.791 746.601,89.663C744.172,91.629 741.523,89.023 739.224,96.323C739.032,96.934 730.671,104.287 729.908,104.959C721.141,112.669 720.07,110.475 708.5,111.336L704.503,111.43C702.835,111.39 701.167,111.35 699.5,111.31C651.355,111.451 650.848,110.693 648.193,113.026C647.723,113.44 637.449,113.81 636.513,113.844C629.037,114.253 629.173,114.493 622.261,117.093C620.671,117.252 619.081,117.412 617.491,117.571C615.382,118.177 615.074,117.395 613.333,119.455C608.7,123.845 606.379,117.316 601.592,121.61C593.064,129.258 587.076,122.505 584.834,125.835C582.153,129.817 581.409,128.592 576.539,128.85C572.789,129.05 574.374,132.548 570.503,132.539C568.832,132.535 567.162,132.387 565.492,132.412C563.971,132.435 559.903,137.017 558.475,137.328C548.605,139.481 549.331,141.219 548.473,141.268C545.189,141.454 545.963,143.26 542.546,143.707C536.091,144.55 536.965,146.265 531.512,149.532C526.477,152.199 525.637,150.461 521.451,154.445C518.854,156.916 516.768,154.703 516.018,158.198C512.763,161.73 511.577,159.822 508.229,163.214C502.089,165.119 502.164,165.21 498.053,170.082C497.873,170.295 497.862,170.256 495.478,172.431C494.485,172.441 493.492,172.451 492.499,172.461C488.628,172.961 488.469,174.64 485.212,178.185C484.532,178.813 483.853,179.44 483.173,180.067C472.266,181.524 476.18,189.41 465.494,191.481C463.028,191.959 463.946,193.279 442.292,214.348C437.63,218.884 438.041,219.019 434.199,224.097C433.066,224.764 425.617,229.151 422.269,235.398C421.308,237.191 409.948,246.899 409.812,249.509C409.399,257.406 400.384,259.275 391.024,278.251C386.451,287.521 382.598,291.65 381.66,292.654C381.116,293.237 376.385,304.283 376.194,306.47C375.449,309.566 371.26,307.222 371.108,312.481C370.909,319.332 368.038,318.612 367.464,325.496C367.08,330.105 362.367,328.068 362.192,330.407C361.884,334.527 362.54,334.658 360.26,338.368C359.772,339.162 360.192,342.803 359.431,343.447C352.751,349.097 358.722,352.584 352.557,358.553C351.02,360.04 353.504,364.863 350.556,368.545C345.832,374.447 350.55,384.514 344.262,388.155C341.849,389.552 346.588,392.739 341.256,407.394C340.852,408.502 340.909,423.12 340.914,424.488L341.014,433.402C336.542,435.991 338.748,437.541 338.346,488.501C338.32,491.825 333.609,491.258 332.588,490.363C316.682,476.411 297.26,467.591 296.755,467.254C293.513,465.395 292.472,464.244 292.167,463.907C287.113,458.319 279.879,465.825 279.318,467.413C277.73,471.908 276.558,470.888 273.777,474.68C267.78,482.853 269.84,483.696 269.286,484.344C261.753,493.168 257.836,503.075 257.028,504.052C249.047,508.245 253.556,512.08 250.118,514.108C241.967,518.917 247.884,525.859 238.488,527.522C237.603,526.64 237.502,526.886 237.033,525.637C236.812,495.607 238.068,402.817 238.621,400.563C247.753,396.24 236.459,381.108 245.335,375.32C248.041,373.556 242.362,369.767 248.164,362.333C249.131,361.093 246.465,360.395 253.002,343.282C255.699,336.223 253.471,335.435 258.196,329.315C260.581,326.225 256.142,324.478 261.229,319.248C264.2,316.194 258.712,313.678 265.04,308.007C268.025,305.333 263.073,302.347 269.191,294.358C270.799,292.259 267.957,290.495 272.65,287.697C274.096,286.835 272.658,279.861 273.931,278.688C281.744,271.494 284.559,259.359 284.738,257.556L285.841,255.769C286.876,254.309 296.743,240.394 297.116,236.444C297.184,235.72 298.582,236.347 301.058,228.258C301.994,225.199 304.555,227.552 305.645,224.566C308.555,216.6 312.942,218.591 313.178,210.457C313.265,207.465 318.488,203.477 319.093,203.016C321.205,201.403 327.986,189.791 328.685,188.595C332.625,181.847 336.48,185.084 341.692,174.583C343.067,171.811 353.204,159.822 362.523,150.523C389.587,123.526 415.345,97.282 429.503,93.508C429.821,93.423 441.598,83.604 442.642,82.734C443.19,82.276 443.835,83.645 450.429,78.375C459.513,71.114 459.783,69.942 470.412,67.273C473.706,66.446 472.106,63.389 478.504,62.52C479.286,62.414 478.208,59.959 487.483,58.432C491.018,57.85 489.855,55.563 493.456,55.058C497.675,54.465 496.103,50.74 503.463,50.02C504.022,49.966 503.932,49.796 509.789,46.986C521.511,41.07 522.065,42.627 533.405,36.282C538.946,33.181 540.703,36.856 544.839,31.868C550.187,29.077 552.415,33.838 555.664,28.645C557.192,26.204 566.891,28.875 568.918,25.811C573.878,18.314 578.969,27.219 586.771,18.943C590.075,15.439 596.925,24.019 607.495,15.491C607.495,15.491 610.282,14.464 610.525,14.375C616.647,14.559 616.487,14.765 622.435,14.369C635.464,13.514 634.458,11.046 634.562,10.702Z" style="fill:rgb(29,147,193);fill-opacity:1;"/>
        <path d="M744.624,10.917C749.594,11.292 749.426,11.149 754.443,11.835C767.266,15.495 767.278,14.971 780.523,15.405C784.25,17.965 784.321,17.558 788.553,19.069C811.086,20.083 869.383,43.236 869.572,43.275C875.173,45.47 925.288,67.611 959.541,93.441C972.662,103.336 979.202,103.415 972.504,118.502C969.949,124.258 969.376,123.84 938.343,189.423C928.071,211.131 913.319,182.242 899.36,175.805C896.393,174.437 897.459,172.722 864.726,154.172C841.478,140.997 805.012,126.006 782.584,122.111C772.1,119.024 772.341,118.92 771.433,118.704C751.799,114.013 748.036,119.682 746.436,113.498C748.371,108.88 745.611,107.671 749.384,104.381C749.655,105.649 749.927,106.917 750.198,108.186C749.933,108.602 749.667,109.019 749.401,109.435C748.627,112.305 748.679,112.303 748.568,112.534C748.489,112.7 748.568,112.534 749.762,114.492C751.111,110.014 753.34,108.868 762.643,100.659L767.76,95.749C769.144,94.58 769.015,94.477 784.553,80.557C792.096,73.799 794.784,74.15 792.598,67.42C791.448,65.53 791.488,65.657 787.902,62.039C784.832,58.562 754.753,24.489 748.498,19.502C745.119,16.338 745.356,16.31 741.591,13.503C741.826,13.287 743.626,11.63 744.624,10.917Z" style="fill:rgb(151,214,239);fill-opacity:0.98;"/>
        <path d="M947.687,714.682C949.986,711.421 950.141,711.637 950.333,711.356C956.817,701.841 959.118,713.73 966.962,725.191C967.983,726.683 974.145,735.687 981.09,742.83C985.969,750.354 1011.133,783.338 1012.358,784.604C1021.364,793.905 994.072,806.916 991.375,814.305C988.52,816.04 988.621,815.968 973.515,827.515C969.758,830.9 969.691,830.591 965.493,833.478C963.893,833.431 956.538,833.219 945.486,833.807C933.048,824.427 906.416,830.455 888.569,820.459C886.034,810.885 890.941,811.34 891.49,801.499C892.393,785.317 895.112,785.737 895.855,769.504C894.477,761.227 901.793,752.742 904.142,752.103C907.795,751.108 939.833,722.334 940.67,721.681C941.24,721.13 941.121,721.044 947.687,714.682Z" style="fill:rgb(28,145,192);fill-opacity:0.98;"/>
        <path d="M3.78,814.123C-0.068,808.952 -1.433,807.618 3.724,803.77C10.868,798.439 18.971,817.271 3.78,814.123Z" style="fill:rgb(15,75,99);fill-opacity:0.99;"/>
        <path d="M947.687,714.682C941.121,721.044 941.24,721.13 940.67,721.681C941.196,720.314 940.918,716.734 947.687,714.682Z" style="fill:rgb(52,173,222);fill-opacity:0.38;"/>
        <path d="M750.498,8.217L755.505,8.181C755.345,8.289 753.499,9.522 753.499,9.522C750.83,10.136 751.432,8.623 750.498,8.217Z" style="fill:rgb(147,201,222);fill-opacity:0.04;"/>
        <path d="M752.541,105.432C753.195,105.456 753.849,105.48 754.503,105.503C754.21,105.671 752.606,106.589 751.135,108.029C751.32,106.337 751.057,106.271 752.541,105.432Z" style="fill:rgb(102,156,177);fill-opacity:0.04;"/>
        <path d="M769.259,89.181C768.691,91.103 768.604,90.907 767.548,92.534C767.154,90.41 767.305,90.334 769.259,89.181Z" style="fill:rgb(116,176,199);fill-opacity:0.02;"/>
        <path d="M866.595,770.263L867.469,770.544C867.405,773.765 865.318,771.491 864.876,771.499C865.449,771.087 866.022,770.675 866.595,770.263Z" style="fill:none;"/>
        <path d="M254.166,325.403C251.003,326.817 252.743,323.6 253.36,323.882C253.485,323.939 253.36,323.882 254.166,325.403Z" style="fill:none;"/>
        <path d="M821.284,137.575C822.517,138.731 822.408,138.651 822.517,138.731C822.928,139.034 823.002,138.435 823.501,138.803C823.265,139.312 823.029,139.821 822.793,140.33C821.652,139.804 820.511,139.278 819.37,138.751C820.575,138.511 820.664,138.73 821.284,137.575Z" style="fill:none;"/>
        <path d="M749.401,109.435C749.668,111.997 749.491,111.804 749.762,114.492C748.568,112.534 748.489,112.7 748.568,112.534C748.679,112.303 748.627,112.305 749.401,109.435Z" style="fill:rgb(91,190,230);fill-opacity:0.18;"/>
        <path d="M778.407,59.055C777.493,56.13 779.23,56.629 779.428,56.686C779.626,56.743 782.216,57.706 778.407,59.055Z" style="fill:none;"/>
        <path d="M941.631,193.114C940.878,191.621 940.819,191.741 940.878,191.621C941.375,190.616 944.241,191.817 941.631,193.114Z" style="fill:none;"/>
        <path d="M342.395,514.802C342.914,514.253 343.914,510.246 345.39,514.87C343.493,514.361 343.65,514.372 343.493,514.361C342.876,514.319 343.098,514.85 342.395,514.802Z" style="fill:none;"/>
        <path d="M996.521,814.396C996.514,814.225 996.347,810.229 998.011,812.863C998.458,813.57 997.893,813.5 996.521,814.396Z" style="fill:none;"/>
        <path d="M804.494,133.396L808.366,133.235C806.448,134.511 806.409,134.426 804.494,133.396Z" style="fill:rgb(168,213,231);fill-opacity:0;"/>
        <path d="M967.562,137.438C967.225,141.056 965.807,138.587 965.731,138.438C965.004,137.01 966.047,137.561 967.562,137.438Z" style="fill:none;"/>
        <path d="M797.471,17.973C803.108,17.237 803.091,17.029 803.558,17.179C804.569,17.503 803.573,18.26 804.48,18.551C804.095,18.538 804.114,18.532 797.471,17.973Z" style="fill:rgb(117,201,234);fill-opacity:0.1;"/>
        <path d="M603.507,10.452L608.49,10.595C609.16,10.931 609.829,11.268 610.499,11.605C609.935,11.55 610.137,11.421 603.507,10.452Z" style="fill:rgb(61,161,201);fill-opacity:0.01;"/>
        <path d="M240.572,372.571C237.202,372.224 239.436,370.916 239.577,370.843C240.997,370.112 240.418,371.126 240.572,372.571Z" style="fill:none;"/>
        <path d="M775.228,84.177L776.213,84.157C774.89,85.649 775.044,85.621 773.266,86.369C773.965,85.023 774.025,85.254 775.228,84.177Z" style="fill:rgb(82,183,224);fill-opacity:0.03;"/>
        <path d="M838.804,148.58C838.822,149.396 838.841,150.212 838.859,151.028L837.52,150.084L838.804,148.58Z" style="fill:none;"/>
        <path d="M579.412,915.5C581.5,914.024 581.327,913.915 581.5,914.024C582.058,914.374 581.844,915.432 582.402,915.782C581.405,915.688 580.408,915.594 579.412,915.5Z" style="fill:rgb(20,104,139);fill-opacity:0;"/>
        <path d="M890.56,829.537C890.672,830.363 890.784,831.19 890.896,832.016L889.548,831.057L890.56,829.537Z" style="fill:none;"/>
        <path d="M943.228,851.55C943.358,852.195 943.487,852.84 943.617,853.486L941.654,854.653C942.064,853.882 941.805,853.93 942.202,853.185C942.274,853.048 942.202,853.185 943.228,851.55Z" style="fill:rgb(82,129,148);fill-opacity:0.01;"/>
        <path d="M699.5,111.31C701.167,111.35 702.835,111.39 704.503,111.43C701.929,112.013 702.012,112.356 699.5,111.31Z" style="fill:rgb(64,169,211);fill-opacity:0.28;"/>
        <path d="M611.471,919.567C612.743,918.801 612.565,917.305 613.244,918.5C614.061,919.939 613.119,919.84 611.471,919.567Z" style="fill:rgb(21,107,142);fill-opacity:0.02;"/>
        <path d="M413.33,249.188C415.044,248.879 415.759,246.906 415.887,248.727C415.976,249.998 414.544,249.283 414.633,250.559C414.199,250.102 413.764,249.645 413.33,249.188Z" style="fill:rgb(28,145,193);fill-opacity:0.01;"/>
        <path d="M485.072,182.02L483.6,183.617L482.954,183.658C483.922,182.514 483.713,182.397 485.072,182.02Z" style="fill:rgb(110,155,174);fill-opacity:0.01;"/>
        <path d="M262.626,522.557C263.024,524.059 262.955,523.906 262.494,525.496L262.269,523.387L262.626,522.557Z" style="fill:rgb(37,92,114);fill-opacity:0.18;"/>
        <path d="M518.576,160.336C517.598,161.286 517.588,161.097 515.435,162.191C515.74,161.928 515.733,161.968 518.576,160.336Z" style="fill:rgb(68,180,225);fill-opacity:0.01;"/>
        <path d="M373.138,601.554L374.203,602.897L373.545,603.156L372.221,602.363L373.138,601.554Z" style="fill:none;"/>
        <path d="M889.52,839.084C891.579,838.962 891.442,839.027 893.457,839.586L889.52,839.084Z" style="fill:rgb(43,102,127);fill-opacity:0.24;"/>
        <path d="M639.476,920.665C640.487,920.925 641.497,921.185 642.508,921.444C641.497,921.185 640.487,920.925 639.476,920.665Z" style="fill:rgb(15,72,95);fill-opacity:0.42;"/>
        <path d="M872.482,835.565C871.762,836.567 871.811,836.481 871.762,836.567C871.515,836.996 871.871,836.908 871.558,837.453C870.908,836.308 871.204,836.24 872.482,835.565Z" style="fill:rgb(81,168,203);fill-opacity:0.02;"/>
        <path d="M292.589,467.598C292.587,468.185 292.584,468.772 292.581,469.359C292.06,468.449 292.026,468.548 292.589,467.598Z" style="fill:none;"/>
        <path d="M488.454,753.57L489.463,753.546C489.826,753.842 490.189,754.137 490.553,754.433C489.853,754.145 489.154,753.858 488.454,753.57Z" style="fill:rgb(45,101,123);fill-opacity:0.29;"/>
        <path d="M342.309,471.508L342.439,473.573C341.724,472.629 341.891,472.716 342.309,471.508Z" style="fill:none;"/>
        <path d="M355.362,152.836L356.596,152.875C355.773,153.578 355.792,153.167 354.71,153.01L355.362,152.836Z" style="fill:rgb(69,179,223);fill-opacity:0.05;"/>
        <path d="M363.808,788.483C363.709,789.048 363.609,789.612 363.51,790.177L363.808,788.483Z" style="fill:rgb(115,149,162);fill-opacity:0;"/>
        <path d="M261.33,524.345C260.279,525.161 260.381,525.324 259.732,525.25L261.33,524.345Z" style="fill:rgb(96,137,154);fill-opacity:0.03;"/>
        <path d="M887.515,887.949L885.307,888.444C886.288,887.774 886.176,887.793 887.515,887.949Z" style="fill:rgb(10,54,72);fill-opacity:0;"/>
        <path d="M621.509,809.641L623.55,809.79C622.504,810.198 622.661,810.007 621.509,809.641Z" style="fill:rgb(16,82,110);fill-opacity:0.01;"/>
        <path d="M765.687,76.842L766.686,76.788C766.305,77.016 765.924,77.244 765.543,77.471L765.687,76.842Z" style="fill:none;"/>
        <path d="M612.518,808.973C612.09,808.947 612.148,809.11 612.518,808.973Z" style="fill:rgb(17,87,116);fill-opacity:0.04;"/>
    </g>
</svg>
